
<svg version="1.1" id="face" xmlns="http://www.w3.org/2000/svg" xmlns:xlink="http://www.w3.org/1999/xlink" x="0px" y="0px"
	viewBox="0 0 125.9 125.7" style="enable-background:new 0 0 125.9 125.7;" xml:space="preserve">
	<path id="face1" d="M75.2,48.3c5.8,0,10.9,0.1,16.1,0c3.9-0.1,5.6,1.3,5,5.4c-0.9,5.8-1.6,11.6-2.2,17.5c-0.4,3.3-1.9,4.7-5.2,4.6
		c-4.3-0.1-8.5,0-13.7,0c0,2.2,0,4,0,5.9c0,11.6-0.1,23.1,0.1,34.7c0.1,3.9-1.3,5.5-5.3,5.4c-5.7-0.2-11.4-0.2-17.1,0
		c-4.1,0.2-5.7-1.4-5.6-5.6c0.2-11.2,0.1-22.4,0.1-33.6c0-1.9,0-3.9,0-6.8c-4.7,0-9-0.1-13.4,0c-3.9,0.2-5.5-1.5-5.4-5.4
		c0.2-5.7,0.1-11.4,0-17.1c-0.1-3.7,1.5-5.1,5.2-5c4.2,0.2,8.5,0,13.6,0c0-4.5,0-8.5,0-12.5C47.5,14.9,58.7,3.9,79.6,4
		c4.5,0,8.9,0.3,13.3,0.5c3,0.1,4.5,1.6,4.4,4.8c-0.1,5.2-0.1,10.3,0,15.5c0.1,3.4-1.3,4.9-4.7,4.8c-3.6-0.1-7.1,0-10.7,0.1
		c-4.3,0.1-6.6,2.2-6.7,6.6C75.2,39.9,75.2,43.7,75.2,48.3z M69.7,115.6c0-2.1,0-3.8,0-5.6c0-11,0-22.1,0-33.1c0-7,0-7,7.2-7
		c2.8,0,5.7,0.2,8.5-0.1c1.2-0.1,3-1.1,3.2-1.9c0.8-4.4,1.2-9,1.9-14.1c-5.6,0-10.4-0.2-15.2,0.1c-4,0.2-6-1.1-5.6-5.5
		c0.3-3.2,0-6.4,0.1-9.6c0.1-11.2,3.5-14.6,14.7-14.7c7.9-0.1,7,1,7.5-7.5c0.3-5.3-1.2-7.6-6.7-7.1c-3.3,0.3-6.8-0.1-10.1,0.1
		C63.6,10.3,55.6,17,53.7,28.4c-1,5.7-0.7,11.7-0.8,17.5c-0.1,8,0,7.9-7.9,8C32.6,54.1,34.5,51.6,34.1,65c-0.1,3.6,0.9,5.3,4.8,5
		c2.5-0.2,5,0.1,7.5-0.1c4.7-0.4,6.7,1.2,6.5,6.3c-0.4,11.4-0.1,22.8-0.1,34.1c0,1.7,0.2,3.4,0.3,5.3C58.8,115.6,64,115.6,69.7,115.6
		z"/>
</svg>
