
<svg version="1.1" id="Lager_1" xmlns="http://www.w3.org/2000/svg" xmlns:xlink="http://www.w3.org/1999/xlink" x="0px" y="0px"
	 viewBox="0 0 125.9 125.7" style="enable-background:new 0 0 125.9 125.7;" xml:space="preserve">
<path id="twitter" d="M38.3,90.2c-6.8-3.2-11.9-7.1-14.7-13.5c-0.7-1.7-3-5.1-0.5-5.2c4.2-0.2,0.7-2.4-0.6-3.5
	c-4.4-3.7-6.8-8.4-7.7-13.9c-0.2-1.5-0.6-5.2,0.9-5c7.1,0.8,3.7-0.9,1.3-7.5c-2.5-6.9-0.8-14.3,0.1-16.8c0.8-2.1,4.4-3.4,6.7-1
	c9.7,10.3,21,17.1,34.8,19.8c2.8,0.6,3.9,0.4,4.3-3.1c2.3-20.4,23-29.9,39.6-18.2c2,1.4,3.6,1.5,5.6,0.7c2-0.8,9-5.2,11.1-3.7
	c2,1.5,1.6,3.6,1.3,5.6c-0.7,5.9-2.6,11.3-6.5,15.8c-1.4,1.6-1.6,3.2-1.7,5.1c-0.9,49.4-53.5,80-96.8,56.4c-1-0.5-1.9-1.1-2.8-1.6
	c-1.3-0.8-2.9-1.7-2.3-3.6c0.6-2.1,2.4-2.1,4.3-1.9C22.7,95.9,30.3,94.4,38.3,90.2z M21.9,100.1c11.3,4.7,26.6,6.3,38.4,3.6
	c28-6.5,46.1-29.2,46.8-58.5c0.1-3,2.6-6.1,4.6-8.4c2.7-3.1,6.5-11.6,4.8-12.2c-0.7-0.4-1.7,0.1-2.2,0.3c-5.1,2.4-11.3,4.8-16.4,0.7
	C92,20.9,84.7,21.2,78,25.1c-6.8,3.9-10.1,10-9.9,17.9c0.2,7-0.5,7.4-7.6,6.2C46.2,47,34,41.1,23.6,31c-0.6-0.6-1.4-1.7-2.5-1.1
	c-0.9,0.6-1.1,1.6-1.1,2.5c-0.7,7.4,1.9,13.7,7.9,18.2c1.4,1.1,2.9,2.5,1.7,3.9c-1.5,1.8-2.4,0.7-4,0.2c-2-0.6-5.9-2.9-5.6,0
	C22,62,29.8,68.1,33.5,71.2c1.7,1.4,1.5,3.6-0.2,4c-1.3,0.3-5.2-1.2-3.4,1.2c0.6,2.6,7,8.2,13.9,9.3c1.8,0.3,4.1,0.2,4.5,2.6
	c0.3,2.1-1.6,2.8-3,3.8C39.4,96.4,29.1,98.2,21.9,100.1z"/>
</svg>
