
<svg version="1.1" id="you-tube" xmlns="http://www.w3.org/2000/svg" xmlns:xlink="http://www.w3.org/1999/xlink" x="0px" y="0px"
	 viewBox="0 0 125.9 125.7" style="enable-background:new 0 0 125.9 125.7;" xml:space="preserve">
<g id="tube">
	<path d="M43.5,24.1l5.7-20.6h8.3L47.4,32.8v16.6h-7.7V32.8L29.6,3.5h8.3L43.5,24.1z"/>
	<path d="M53.9,31c0-5.2,0.9-9.2,2.6-12.2s4.2-4.4,7.3-4.4c3.1,0,5.6,1.5,7.3,4.4c1.8,2.9,2.6,7,2.6,12.2v2.2
		c0,5.2-0.9,9.2-2.6,12.2c-1.7,2.9-4.2,4.4-7.3,4.4c-3.1,0-5.6-1.5-7.3-4.4c-1.7-2.9-2.6-7-2.6-12.2V31z M60.3,33.2
		c0,6.1,1.2,9.1,3.5,9.1c2.2,0,3.3-2.5,3.5-7.6l0-3.8c0-3.1-0.3-5.4-0.9-6.9c-0.6-1.5-1.5-2.3-2.6-2.3c-1.1,0-1.9,0.8-2.5,2.3
		c-0.6,1.5-0.9,3.8-0.9,6.9V33.2z"/>
	<path d="M88.6,45.7c-1.3,2.5-3.1,3.8-5.3,3.8c-2.2,0-3.9-1.1-5.1-3.2c-1.2-2.2-1.7-5.3-1.7-9.4V14.7h6.4V37c0,3.3,0.8,5,2.4,5
		c1.5,0,2.5-0.9,3.2-2.6V14.7h6.4v34.1h-6L88.6,45.7z"/>
</g>
<g id="you">
	<path d="M74.2,84.3c-1.3,0-2.3,0.7-2.9,2.2V102c0.6,1.4,1.5,2.1,2.9,2.1c1.2,0,2-0.5,2.5-1.5c0.5-1,0.7-2.8,0.7-5.6v-2.8
		c0-3.1-0.2-7.2-0.7-8.3C76.2,84.8,75.4,84.3,74.2,84.3z"/>
	<path d="M98.8,90.6v-0.7c0-1.8,0.8-6.8-2.9-6.8c-3.7,0-3.2,5-3.2,7.6H98.8z"/>
	<path d="M16.6,57.4v64.7h98.3V57.4H16.6z M36.8,109.8h-6.9V74.9h-8.3v-7.1h23.6v7.1h-8.4V109.8z M60.6,109.3h-5.8l-0.2-2.8
		c-1.3,2.2-3,3.3-5.2,3.3c-2.2,0-3.8-1-5-2.9c-1.1-1.9-1.7-4.7-1.7-8.3V79.1H49v19.8c0,2.9,0.8,4.4,2.3,4.4c1.4,0,2.4-0.8,3.1-2.3
		V79.1h6.3V109.3z M83.8,96.1c0,4.8-0.6,8.4-1.9,10.8c-1.2,2.4-3.2,3.6-5.9,3.6c-2.1,0-3.8-1.2-5-3.5l-0.2,2.9H65V67.9h6.3v12.9
		c1.2-2,2.7-3,4.7-3c2.7,0,4.6,1.2,5.9,3.6c1.2,2.4,1.9,7.8,1.9,12.4V96.1z M96.3,109.8c-3.1,0-5.4-0.9-7.2-3.3
		c-1.7-2.4-2.4-6.9-2.4-11.4v-2.4c0-4.8,0.8-8.4,2.4-11c1.6-2.6,3.9-3.9,6.8-3.9c2.9,0,5.1,1.2,6.5,3.6c1.5,2.4,1.1,13.2,1.1,13.2
		l-11.3,0.2c-0.2,3.6-0.5,10,4.2,9.9c3-0.1,1.9-3.8,2.1-5.8l5.4,0C104.3,104.7,103.8,109.8,96.3,109.8z"/>
</g>
</svg>
